<svg version="1.1" id="Layer_1" xmlns="http://www.w3.org/2000/svg" xmlns:xlink="http://www.w3.org/1999/xlink" x="0px" y="0px"
	 width="100%" viewBox="0 0 225 225" enable-background="new 0 0 225 225" xml:space="preserve">
<path fill="#FEFEFF" opacity="1.000000" stroke="none" 
	d="
M112.000000,226.000000 
	C74.666672,226.000000 37.833336,226.000000 1.000005,226.000000 
	C1.000003,151.000000 1.000003,76.000015 1.000002,1.000015 
	C75.999992,1.000010 150.999985,1.000010 225.999969,1.000005 
	C225.999985,75.999985 225.999985,150.999969 226.000000,225.999969 
	C188.166672,226.000000 150.333328,226.000000 112.000000,226.000000 
M190.776016,126.988670 
	C191.525238,126.662964 192.274475,126.337257 193.001038,126.062164 
	C193.001038,126.062164 193.051407,126.085388 193.771622,125.948540 
	C199.764481,128.386292 204.057495,127.207298 205.891785,122.619965 
	C208.091171,117.119568 205.643143,111.642181 199.748779,110.070984 
	C197.727997,109.532326 195.279236,110.599213 193.088638,110.020836 
	C193.017639,106.342133 192.946625,102.663422 193.029236,98.521530 
	C193.029236,98.521530 192.931488,98.043411 192.804245,97.288864 
	C191.837753,97.343277 190.871246,97.397690 189.504990,97.666504 
	C189.515274,98.101288 189.525558,98.536079 189.273361,99.877510 
	C189.283676,108.545860 189.293991,117.214211 189.101181,126.439400 
	C189.423828,126.582993 189.746475,126.726585 190.776016,126.988670 
M45.007687,120.659081 
	C45.333553,120.738960 45.659424,120.818840 46.455669,121.241638 
	C46.942223,121.549156 47.428776,121.856674 48.103432,122.778580 
	C48.503162,123.531921 48.902889,124.285255 49.363297,125.879608 
	C49.710449,128.754929 49.879436,131.535934 45.151043,132.016403 
	C42.791988,131.898468 40.432930,131.780533 37.830265,130.935913 
	C37.569695,129.181992 37.493595,127.371475 36.979336,125.695389 
	C36.671173,124.691010 35.678116,123.896782 34.422676,122.573692 
	C32.943649,122.063698 31.464626,121.553711 28.265846,120.450714 
	C29.260731,125.312714 29.984764,128.851059 30.878017,133.034927 
	C32.554279,134.731842 34.230545,136.428757 36.310925,138.765717 
	C38.543335,139.147797 40.775745,139.529892 43.802746,140.057022 
	C53.650173,139.020065 58.723034,132.409882 56.956432,122.320015 
	C56.280750,120.888878 55.605068,119.457733 54.789810,117.349030 
	C53.580708,116.783829 52.371605,116.218628 51.243813,114.950272 
	C49.844139,114.261055 48.444469,113.571831 46.484482,112.399971 
	C44.019520,111.862595 41.554562,111.325218 38.656574,110.282036 
	C36.517712,109.117744 34.378849,107.953453 31.983276,106.117226 
	C30.856726,103.073845 29.730175,100.030457 28.793293,96.196587 
	C29.078913,90.298485 32.234497,86.264801 37.884804,83.184196 
	C39.590599,82.784554 41.296394,82.384911 43.714870,82.195229 
	C46.978924,83.512573 50.242973,84.829918 53.847183,86.778236 
	C55.202843,89.197395 56.558506,91.616562 57.825176,94.851974 
	C56.736435,98.678680 56.014969,102.666222 54.433685,106.277237 
	C53.324474,108.810234 53.244560,110.109177 56.521751,111.371895 
	C58.860649,114.270538 60.986015,112.436737 61.702953,110.386383 
	C63.446918,105.398811 64.512878,100.174164 65.953575,94.274940 
	C65.028786,91.721359 64.103996,89.167770 63.106777,85.954231 
	C61.415386,83.943443 59.723995,81.932663 57.728428,79.305031 
	C53.867100,77.696358 50.005772,76.087685 45.476093,74.163940 
	C43.310520,74.391129 41.144951,74.618324 38.267132,74.824051 
	C37.179142,75.210640 36.091152,75.597229 34.289604,76.020050 
	C23.430397,81.288231 19.497505,89.091576 21.191650,102.401222 
	C21.251448,102.740257 21.438566,102.979874 21.813290,103.858208 
	C23.821363,106.980408 25.829437,110.102608 28.186852,113.803864 
	C30.814787,115.157501 33.442722,116.511131 36.751202,118.155258 
	C39.408386,118.844604 42.065575,119.533951 44.738911,120.187904 
	C44.738911,120.187904 44.768394,120.201881 45.007687,120.659081 
M184.006470,122.047028 
	C184.043137,118.784760 184.271851,115.504913 183.976135,112.273056 
	C183.905670,111.502914 182.083054,110.893097 180.326523,110.571785 
	C180.287292,113.730331 180.604126,116.952782 180.053772,120.019608 
	C179.791290,121.482353 177.880737,122.649361 176.716690,123.950325 
	C175.704010,122.746254 174.094955,121.667389 173.810074,120.310516 
	C173.307373,117.916237 173.864532,115.311844 173.472885,112.876640 
	C173.275131,111.646980 171.971481,110.595169 171.167847,109.462952 
	C170.691452,109.732742 170.215042,110.002533 169.738632,110.272324 
	C169.738632,113.407913 169.812057,116.545670 169.719131,119.678505 
	C169.614563,123.203636 170.709579,126.112381 174.337585,126.970139 
	C178.264816,127.898636 182.047409,127.622810 184.006470,122.047028 
M149.968979,98.957008 
	C149.962616,107.004875 149.911575,115.053215 149.996185,123.100121 
	C150.009460,124.362854 150.638397,125.619118 151.834198,127.036705 
	C152.520020,126.377472 153.720551,125.773331 153.798080,125.048988 
	C154.062592,122.578003 154.269730,120.008484 153.866074,117.581795 
	C153.362717,114.555519 154.714081,112.862511 157.260254,113.259109 
	C158.601257,113.467995 160.298141,115.827736 160.581238,117.436775 
	C161.112717,120.457581 160.734329,123.638466 160.734329,126.758995 
	C164.709564,126.639824 164.756927,126.638657 164.542908,117.970757 
	C164.494507,116.009697 164.624084,112.905312 163.573959,112.329613 
	C160.840408,110.830986 157.497314,110.444168 153.851990,109.467720 
	C153.851990,106.078743 153.851990,101.775970 153.851990,96.778687 
	C152.337814,97.302307 151.260422,97.674881 149.968979,98.957008 
M115.770317,127.028923 
	C117.843407,127.071312 119.948166,126.899147 121.983192,127.199478 
	C126.631195,127.885437 130.116013,125.649361 131.164871,121.045639 
	C132.441483,115.442276 130.934479,112.146637 126.032036,110.912392 
	C123.506210,110.276489 120.774719,110.457535 117.860855,110.249809 
	C117.860855,106.280510 117.860855,102.142426 117.897934,97.484619 
	C117.601501,97.429390 117.305077,97.374168 116.189926,97.195206 
	C115.516998,98.215271 114.273842,99.228180 114.260948,100.256516 
	C114.153358,108.837898 114.272232,117.422127 114.153366,126.483543 
	C114.436226,126.601280 114.719086,126.719017 115.770317,127.028923 
M83.295212,121.905373 
	C80.698601,124.637207 78.395393,124.537956 75.928787,121.544952 
	C74.939163,120.344147 73.191811,119.767799 70.883530,118.351410 
	C72.958992,126.093292 76.343140,128.360550 82.005096,127.071251 
	C86.396568,126.071266 89.012192,121.864311 88.128090,117.119949 
	C87.286514,112.603821 83.282639,111.737915 80.005119,109.852997 
	C78.525742,109.002205 76.547905,106.465431 76.911293,105.452026 
	C77.914719,102.653755 80.356941,102.433266 83.032196,104.037895 
	C84.096840,104.676468 85.621971,104.547318 86.937462,104.767677 
	C87.111420,103.885597 87.285378,103.003517 87.459343,102.121445 
	C84.455681,101.402702 81.345551,99.862312 78.483086,100.233215 
	C76.313560,100.514328 73.408096,102.907448 72.775284,104.960335 
	C72.197670,106.834175 73.814674,109.831894 75.256615,111.733650 
	C76.332710,113.152893 78.641891,113.680527 80.453926,114.488655 
	C83.454948,115.827026 84.933929,117.850235 83.295212,121.905373 
M98.478577,110.425285 
	C96.593193,111.609360 94.055161,112.370399 92.956947,114.064705 
	C90.599533,117.701653 91.643097,124.295868 95.244598,125.548096 
	C99.134918,126.900764 103.731705,126.295959 108.020126,126.292595 
	C108.375511,126.292320 109.003761,124.373100 109.035286,123.331261 
	C109.155762,119.349747 109.083961,115.362411 109.083961,111.246712 
	C105.554863,110.764160 102.252625,110.312637 98.478577,110.425285 
M137.415253,127.030693 
	C138.235840,126.325394 139.612823,125.722389 139.765106,124.894211 
	C140.118744,122.970757 139.834015,120.937202 139.894547,118.950905 
	C139.986374,115.937325 139.643707,112.639458 144.534271,113.363808 
	C145.228180,113.466591 146.213852,111.599571 147.647400,109.989624 
	C143.141495,109.989624 139.688385,109.989624 135.697189,109.989624 
	C135.967300,115.816139 136.225174,121.378677 137.415253,127.030693 
z"/>
<path fill="#24154A" opacity="1.000000" stroke="none" 
	d="
M83.541275,121.558426 
	C84.933929,117.850235 83.454948,115.827026 80.453926,114.488655 
	C78.641891,113.680527 76.332710,113.152893 75.256615,111.733650 
	C73.814674,109.831894 72.197670,106.834175 72.775284,104.960335 
	C73.408096,102.907448 76.313560,100.514328 78.483086,100.233215 
	C81.345551,99.862312 84.455681,101.402702 87.459343,102.121445 
	C87.285378,103.003517 87.111420,103.885597 86.937462,104.767677 
	C85.621971,104.547318 84.096840,104.676468 83.032196,104.037895 
	C80.356941,102.433266 77.914719,102.653755 76.911293,105.452026 
	C76.547905,106.465431 78.525742,109.002205 80.005119,109.852997 
	C83.282639,111.737915 87.286514,112.603821 88.128090,117.119949 
	C89.012192,121.864311 86.396568,126.071266 82.005096,127.071251 
	C76.343140,128.360550 72.958992,126.093292 70.883530,118.351410 
	C73.191811,119.767799 74.939163,120.344147 75.928787,121.544952 
	C78.395393,124.537956 80.698601,124.637207 83.541275,121.558426 
z"/>
<path fill="#24154A" opacity="1.000000" stroke="none" 
	d="
M114.322777,126.005493 
	C114.272232,117.422127 114.153358,108.837898 114.260948,100.256516 
	C114.273842,99.228180 115.516998,98.215271 116.688522,97.426651 
	C117.375740,97.843452 117.600319,97.958870 117.860855,98.004333 
	C117.860855,102.142426 117.860855,106.280510 117.860855,110.249809 
	C120.774719,110.457535 123.506210,110.276489 126.032036,110.912392 
	C130.934479,112.146637 132.441483,115.442276 131.164871,121.045639 
	C130.116013,125.649361 126.631195,127.885437 121.983192,127.199478 
	C119.948166,126.899147 117.843407,127.071312 115.324478,126.755318 
	C114.766533,126.237572 114.581245,126.078827 114.322777,126.005493 
M118.062645,120.088463 
	C120.793991,124.592026 124.763313,125.451248 126.560570,121.644615 
	C127.435898,119.790680 127.055389,116.900696 126.247177,114.877693 
	C125.828918,113.830772 122.358032,112.722145 121.791756,113.256859 
	C120.121017,114.834503 119.211151,117.217934 118.062645,120.088463 
z"/>
<path fill="#2A1C4F" opacity="1.000000" stroke="none" 
	d="
M150.183014,98.047455 
	C151.260422,97.674881 152.337814,97.302307 153.851990,96.778687 
	C153.851990,101.775970 153.851990,106.078743 153.851990,109.467720 
	C157.497314,110.444168 160.840408,110.830986 163.573959,112.329613 
	C164.624084,112.905312 164.494507,116.009697 164.542908,117.970757 
	C164.756927,126.638657 164.709564,126.639824 160.734329,126.758995 
	C160.734329,123.638466 161.112717,120.457581 160.581238,117.436775 
	C160.298141,115.827736 158.601257,113.467995 157.260254,113.259109 
	C154.714081,112.862511 153.362717,114.555519 153.866074,117.581795 
	C154.269730,120.008484 154.062592,122.578003 153.798080,125.048988 
	C153.720551,125.773331 152.520020,126.377472 151.432251,126.497177 
	C151.032288,121.511139 151.145706,117.061134 151.006256,112.619049 
	C150.853653,107.758026 150.467422,102.904343 150.183014,98.047455 
z"/>
<path fill="#1E0E45" opacity="1.000000" stroke="none" 
	d="
M98.714478,110.143196 
	C102.252625,110.312637 105.554863,110.764160 109.083961,111.246712 
	C109.083961,115.362411 109.155762,119.349747 109.035286,123.331261 
	C109.003761,124.373100 108.375511,126.292320 108.020126,126.292595 
	C103.731705,126.295959 99.134918,126.900764 95.244598,125.548096 
	C91.643097,124.295868 90.599533,117.701653 92.956947,114.064705 
	C94.055161,112.370399 96.593193,111.609360 98.714478,110.143196 
M104.031029,122.541008 
	C104.514015,120.847092 105.868446,118.707298 105.281761,117.560692 
	C104.331802,115.704102 102.076607,113.320930 100.429794,113.363731 
	C98.896980,113.403564 96.467957,116.147064 96.137154,118.003830 
	C95.279587,122.817368 98.488197,124.781731 104.031029,122.541008 
z"/>
<path fill="#2A1C4F" opacity="1.000000" stroke="none" 
	d="
M183.739838,122.934677 
	C182.047409,127.622810 178.264816,127.898636 174.337585,126.970139 
	C170.709579,126.112381 169.614563,123.203636 169.719131,119.678505 
	C169.812057,116.545670 169.738632,113.407913 169.738632,110.272324 
	C170.215042,110.002533 170.691452,109.732742 171.167847,109.462952 
	C171.971481,110.595169 173.275131,111.646980 173.472885,112.876640 
	C173.864532,115.311844 173.307373,117.916237 173.810074,120.310516 
	C174.094955,121.667389 175.704010,122.746254 176.716690,123.950325 
	C177.880737,122.649361 179.791290,121.482353 180.053772,120.019608 
	C180.604126,116.952782 180.287292,113.730331 180.933670,110.679672 
	C182.015717,112.257622 182.679901,113.697136 182.923172,115.204575 
	C183.335358,117.758690 183.481735,120.355698 183.739838,122.934677 
z"/>
<path fill="#34ACAB" opacity="1.000000" stroke="none" 
	d="
M21.230461,101.931007 
	C19.497505,89.091576 23.430397,81.288231 34.641563,76.378098 
	C30.405840,85.134430 25.818151,93.532715 21.230461,101.931007 
z"/>
<path fill="#24154A" opacity="1.000000" stroke="none" 
	d="
M193.026001,110.932587 
	C195.279236,110.599213 197.727997,109.532326 199.748779,110.070984 
	C205.643143,111.642181 208.091171,117.119568 205.891785,122.619965 
	C204.057495,127.207298 199.764481,128.386292 193.422958,125.650505 
	C193.440552,124.449738 193.806824,123.547012 194.520203,122.794197 
	C197.529297,124.760361 200.302933,124.416916 201.564789,121.705101 
	C202.436707,119.831268 202.403717,116.759521 201.417618,114.971924 
	C199.752914,111.954163 196.768967,112.654404 194.008026,113.965408 
	C193.589615,112.732613 193.307816,111.832596 193.026001,110.932587 
z"/>
<path fill="#2076AE" opacity="1.000000" stroke="none" 
	d="
M56.043144,110.866608 
	C53.244560,110.109177 53.324474,108.810234 54.433685,106.277237 
	C56.014969,102.666222 56.736435,98.678680 58.179771,94.291985 
	C60.082649,91.359390 61.630928,88.986794 63.179211,86.614189 
	C64.103996,89.167770 65.028786,91.721359 65.611496,94.823547 
	C62.193996,100.536972 59.118568,105.701790 56.043144,110.866608 
z"/>
<path fill="#1E0E45" opacity="1.000000" stroke="none" 
	d="
M193.057312,110.476715 
	C193.307816,111.832596 193.589615,112.732613 193.907532,114.320007 
	C194.020142,117.553017 194.096603,120.098648 194.173080,122.644279 
	C193.806824,123.547012 193.440552,124.449738 193.062851,125.718933 
	C193.051407,126.085388 193.001038,126.062164 192.644287,126.029282 
	C191.551697,125.994087 190.815826,125.991768 189.888916,125.941948 
	C189.697861,125.894447 189.304321,125.882561 189.304321,125.882561 
	C189.293991,117.214211 189.283676,108.545860 189.738495,99.419960 
	C191.094299,98.969849 191.984970,98.977287 192.875626,98.984726 
	C192.946625,102.663422 193.017639,106.342133 193.057312,110.476715 
z"/>
<path fill="#6F6FC2" opacity="1.000000" stroke="none" 
	d="
M53.507023,86.147263 
	C50.242973,84.829918 46.978924,83.512573 43.503777,81.766029 
	C44.243275,79.050888 45.193859,76.764954 46.144444,74.479012 
	C50.005772,76.087685 53.867100,77.696358 57.838745,79.973701 
	C56.468384,82.477333 54.987705,84.312302 53.507023,86.147263 
z"/>
<path fill="#24154A" opacity="1.000000" stroke="none" 
	d="
M136.949158,126.985954 
	C136.225174,121.378677 135.967300,115.816139 135.697189,109.989624 
	C139.688385,109.989624 143.141495,109.989624 147.647400,109.989624 
	C146.213852,111.599571 145.228180,113.466591 144.534271,113.363808 
	C139.643707,112.639458 139.986374,115.937325 139.894547,118.950905 
	C139.834015,120.937202 140.118744,122.970757 139.765106,124.894211 
	C139.612823,125.722389 138.235840,126.325394 136.949158,126.985954 
z"/>
<path fill="#5690B7" opacity="1.000000" stroke="none" 
	d="
M28.603622,96.987076 
	C29.730175,100.030457 30.856726,103.073845 31.814568,106.651810 
	C30.376408,109.199188 29.106956,111.211998 27.837505,113.224808 
	C25.829437,110.102608 23.821363,106.980408 22.139071,103.423859 
	C24.511108,100.988693 26.557365,98.987885 28.603622,96.987076 
z"/>
<path fill="#42A1B0" opacity="1.000000" stroke="none" 
	d="
M28.698458,96.591827 
	C26.557365,98.987885 24.511108,100.988693 22.108927,103.054794 
	C21.438566,102.979874 21.251448,102.740257 21.211056,102.166115 
	C25.818151,93.532715 30.405840,85.134430 34.998344,76.359970 
	C36.091152,75.597229 37.179142,75.210640 38.597305,75.225800 
	C38.328644,78.205719 37.729809,80.783882 37.130974,83.362053 
	C32.234497,86.264801 29.078913,90.298485 28.698458,96.591827 
z"/>
<path fill="#6F6FC2" opacity="1.000000" stroke="none" 
	d="
M28.012177,113.514336 
	C29.106956,111.211998 30.376408,109.199188 31.942924,106.987778 
	C34.378849,107.953453 36.517712,109.117744 38.847458,110.928383 
	C38.049114,113.671410 37.059887,115.768082 36.070660,117.864761 
	C33.442722,116.511131 30.814787,115.157501 28.012177,113.514336 
z"/>
<path fill="#1F3991" opacity="1.000000" stroke="none" 
	d="
M56.884605,123.010750 
	C58.723034,132.409882 53.650173,139.020065 43.512375,139.780853 
	C43.416660,139.254547 43.665241,139.082230 44.322510,138.960022 
	C46.118805,137.461929 47.755192,136.134720 48.962463,134.492111 
	C51.714920,130.747116 54.257030,126.847527 56.884605,123.010750 
z"/>
<path fill="#044C99" opacity="1.000000" stroke="none" 
	d="
M56.920517,122.665382 
	C54.257030,126.847527 51.714920,130.747116 48.962463,134.492111 
	C47.755192,136.134720 46.118805,137.461929 44.135094,138.685196 
	C43.548061,137.226730 43.151699,135.877930 43.556671,134.842560 
	C43.966110,133.795792 45.169216,133.059433 46.024651,132.187088 
	C49.879436,131.535934 49.710449,128.754929 49.690498,125.453125 
	C51.654926,122.693291 53.292156,120.359947 54.929382,118.026596 
	C55.605068,119.457733 56.280750,120.888878 56.920517,122.665382 
z"/>
<path fill="#1A64A4" opacity="1.000000" stroke="none" 
	d="
M56.282448,111.119247 
	C59.118568,105.701790 62.193996,100.536972 65.560669,95.208580 
	C64.512878,100.174164 63.446918,105.398811 61.702953,110.386383 
	C60.986015,112.436737 58.860649,114.270538 56.282448,111.119247 
z"/>
<path fill="#456DB8" opacity="1.000000" stroke="none" 
	d="
M53.677101,86.462753 
	C54.987705,84.312302 56.468384,82.477333 57.990833,80.282120 
	C59.723995,81.932663 61.415386,83.943443 63.142994,86.284210 
	C61.630928,88.986794 60.082649,91.359390 58.224266,93.883858 
	C56.558506,91.616562 55.202843,89.197395 53.677101,86.462753 
z"/>
<path fill="#456DB8" opacity="1.000000" stroke="none" 
	d="
M36.410931,118.010010 
	C37.059887,115.768082 38.049114,113.671410 39.063969,111.181290 
	C41.554562,111.325218 44.019520,111.862595 46.739891,113.031616 
	C46.237789,115.849937 45.480274,118.036621 44.722759,120.223297 
	C42.065575,119.533951 39.408386,118.844604 36.410931,118.010010 
z"/>
<path fill="#456DB8" opacity="1.000000" stroke="none" 
	d="
M35.906815,138.125671 
	C34.230545,136.428757 32.554279,134.731842 30.960754,132.365829 
	C32.359955,128.800522 33.676422,125.904312 34.992889,123.008102 
	C35.678116,123.896782 36.671173,124.691010 36.979336,125.695389 
	C37.493595,127.371475 37.569695,129.181992 37.918907,131.692749 
	C37.307304,134.341614 36.607059,136.233643 35.906815,138.125671 
z"/>
<path fill="#5690B7" opacity="1.000000" stroke="none" 
	d="
M37.507889,83.273125 
	C37.729809,80.783882 38.328644,78.205719 38.953430,75.236534 
	C41.144951,74.618324 43.310520,74.391129 45.810268,74.321472 
	C45.193859,76.764954 44.243275,79.050888 43.147438,81.661057 
	C41.296394,82.384911 39.590599,82.784554 37.507889,83.273125 
z"/>
<path fill="#1A64A4" opacity="1.000000" stroke="none" 
	d="
M36.108871,138.445694 
	C36.607059,136.233643 37.307304,134.341614 38.040710,132.056091 
	C40.432930,131.780533 42.791988,131.898468 45.587845,132.101746 
	C45.169216,133.059433 43.966110,133.795792 43.556671,134.842560 
	C43.151699,135.877930 43.548061,137.226730 43.780331,138.712860 
	C43.665241,139.082230 43.416660,139.254547 43.115082,139.708328 
	C40.775745,139.529892 38.543335,139.147797 36.108871,138.445694 
z"/>
<path fill="#6F6FC2" opacity="1.000000" stroke="none" 
	d="
M34.707779,122.790894 
	C33.676422,125.904312 32.359955,128.800522 30.876144,132.043060 
	C29.984764,128.851059 29.260731,125.312714 28.265846,120.450714 
	C31.464626,121.553711 32.943649,122.063698 34.707779,122.790894 
z"/>
<path fill="#1A64A4" opacity="1.000000" stroke="none" 
	d="
M54.859596,117.687813 
	C53.292156,120.359947 51.654926,122.693291 49.660156,125.032623 
	C48.902889,124.285255 48.503162,123.531921 48.152458,122.140442 
	C49.188492,119.552681 50.175499,117.603050 51.162506,115.653419 
	C52.371605,116.218628 53.580708,116.783829 54.859596,117.687813 
z"/>
<path fill="#2076AE" opacity="1.000000" stroke="none" 
	d="
M51.203159,115.301849 
	C50.175499,117.603050 49.188492,119.552681 48.058407,121.833252 
	C47.428776,121.856674 46.942223,121.549156 46.081032,120.859642 
	C45.393726,120.385727 45.081062,120.293800 44.768394,120.201874 
	C44.768394,120.201881 44.738911,120.187904 44.730835,120.205597 
	C45.480274,118.036621 46.237789,115.849937 47.020050,113.272934 
	C48.444469,113.571831 49.844139,114.261055 51.203159,115.301849 
z"/>
<path fill="#080036" opacity="1.000000" stroke="none" 
	d="
M150.075989,98.502228 
	C150.467422,102.904343 150.853653,107.758026 151.006256,112.619049 
	C151.145706,117.061134 151.032288,121.511139 151.006485,126.418015 
	C150.638397,125.619118 150.009460,124.362854 149.996185,123.100121 
	C149.911575,115.053215 149.962616,107.004875 150.075989,98.502228 
z"/>
<path fill="#080036" opacity="1.000000" stroke="none" 
	d="
M183.873154,122.490852 
	C183.481735,120.355698 183.335358,117.758690 182.923172,115.204575 
	C182.679901,113.697136 182.015717,112.257622 181.303589,110.498550 
	C182.083054,110.893097 183.905670,111.502914 183.976135,112.273056 
	C184.271851,115.504913 184.043137,118.784760 183.873154,122.490852 
z"/>
<path fill="#080036" opacity="1.000000" stroke="none" 
	d="
M192.952423,98.753128 
	C191.984970,98.977287 191.094299,98.969849 189.869736,98.966637 
	C189.525558,98.536079 189.515274,98.101288 189.955597,97.751625 
	C191.247971,97.905632 192.089737,97.974518 192.931488,98.043411 
	C192.931488,98.043411 193.029236,98.521530 192.952423,98.753128 
z"/>
<path fill="#665E7A" opacity="1.000000" stroke="none" 
	d="
M192.867859,97.666138 
	C192.089737,97.974518 191.247971,97.905632 190.155487,97.644424 
	C190.871246,97.397690 191.837753,97.343277 192.867859,97.666138 
z"/>
<path fill="#080036" opacity="1.000000" stroke="none" 
	d="
M190.079971,125.989449 
	C190.815826,125.991768 191.551697,125.994087 192.655640,126.003975 
	C192.274475,126.337257 191.525238,126.662964 190.393494,126.708862 
	C190.010956,126.429047 190.079971,125.989449 190.079971,125.989449 
z"/>
<path fill="#456DB8" opacity="1.000000" stroke="none" 
	d="
M44.888039,120.430481 
	C45.081062,120.293800 45.393726,120.385727 45.845840,120.688187 
	C45.659424,120.818840 45.333553,120.738960 44.888039,120.430481 
z"/>
<path fill="#372A58" opacity="1.000000" stroke="none" 
	d="
M114.238068,126.244522 
	C114.581245,126.078827 114.766533,126.237572 114.940292,126.659241 
	C114.719086,126.719017 114.436226,126.601280 114.238068,126.244522 
z"/>
<path fill="#665E7A" opacity="1.000000" stroke="none" 
	d="
M189.888916,125.941948 
	C190.079971,125.989449 190.010956,126.429047 190.040039,126.649612 
	C189.746475,126.726585 189.423828,126.582993 189.202759,126.160980 
	C189.304321,125.882561 189.697861,125.894447 189.888916,125.941948 
z"/>
<path fill="#372A58" opacity="1.000000" stroke="none" 
	d="
M117.879395,97.744476 
	C117.600319,97.958870 117.375740,97.843452 117.097878,97.488525 
	C117.305077,97.374168 117.601501,97.429390 117.879395,97.744476 
z"/>
<path fill="#F7F6F8" opacity="1.000000" stroke="none" 
	d="
M118.033096,119.687256 
	C119.211151,117.217934 120.121017,114.834503 121.791756,113.256859 
	C122.358032,112.722145 125.828918,113.830772 126.247177,114.877693 
	C127.055389,116.900696 127.435898,119.790680 126.560570,121.644615 
	C124.763313,125.451248 120.793991,124.592026 118.033096,119.687256 
z"/>
<path fill="#F7F6F8" opacity="1.000000" stroke="none" 
	d="
M103.752975,122.775528 
	C98.488197,124.781731 95.279587,122.817368 96.137154,118.003830 
	C96.467957,116.147064 98.896980,113.403564 100.429794,113.363731 
	C102.076607,113.320930 104.331802,115.704102 105.281761,117.560692 
	C105.868446,118.707298 104.514015,120.847092 103.752975,122.775528 
z"/>
<path fill="#F7F6F8" opacity="1.000000" stroke="none" 
	d="
M194.520203,122.794197 
	C194.096603,120.098648 194.020142,117.553017 194.044159,114.652786 
	C196.768967,112.654404 199.752914,111.954163 201.417618,114.971924 
	C202.403717,116.759521 202.436707,119.831268 201.564789,121.705101 
	C200.302933,124.416916 197.529297,124.760361 194.520203,122.794197 
z"/>
</svg>