<?xml version="1.0" encoding="UTF-8"?>
<!DOCTYPE svg PUBLIC "-//W3C//DTD SVG 1.1//EN" "http://www.w3.org/Graphics/SVG/1.1/DTD/svg11.dtd">
<svg xmlns="http://www.w3.org/2000/svg" version="1.1" width="192px" height="192px" style="shape-rendering:geometricPrecision; text-rendering:geometricPrecision; image-rendering:optimizeQuality; fill-rule:evenodd; clip-rule:evenodd" xmlns:xlink="http://www.w3.org/1999/xlink">
<g><path style="opacity:0.008" fill="#5994bd" d="M 87.5,28.5 C 92.6503,27.3493 97.9836,27.1826 103.5,28C 98.1771,28.4994 92.8437,28.666 87.5,28.5 Z"/></g>
<g><path style="opacity:0.012" fill="#47a8b6" d="M 86.5,29.5 C 85.448,29.6495 84.448,29.4828 83.5,29C 84.7494,28.2599 85.7494,28.4265 86.5,29.5 Z"/></g>
<g><path style="opacity:0.943" fill="#419eb0" d="M 86.5,29.5 C 87.5,29.5 88.5,29.5 89.5,29.5C 85.1382,37.517 80.8049,45.517 76.5,53.5C 76.5,53.8333 76.5,54.1667 76.5,54.5C 75.8333,54.5 75.5,54.8333 75.5,55.5C 74.8333,55.5 74.5,55.8333 74.5,56.5C 73.8333,56.5 73.5,56.8333 73.5,57.5C 72.6618,57.8417 72.3284,58.5084 72.5,59.5C 71.8333,59.5 71.5,59.8333 71.5,60.5C 70.6618,60.8417 70.3284,61.5084 70.5,62.5C 69.596,63.209 69.2627,64.209 69.5,65.5C 68.8333,65.5 68.5,65.8333 68.5,66.5C 63.7648,74.9666 58.7648,83.2999 53.5,91.5C 52.6618,91.1583 52.3284,90.4916 52.5,89.5C 63.2465,69.6718 74.2465,50.0051 85.5,30.5C 86.1667,30.5 86.5,30.1667 86.5,29.5 Z"/></g>
<g><path style="opacity:0.936" fill="#4798b2" d="M 89.5,29.5 C 90.5,29.5 91.5,29.5 92.5,29.5C 88.5656,36.3691 84.8989,43.3691 81.5,50.5C 80.8333,50.5 80.5,50.8333 80.5,51.5C 79.5084,51.3284 78.8417,51.6618 78.5,52.5C 77.8333,52.5 77.5,52.8333 77.5,53.5C 77.1667,53.5 76.8333,53.5 76.5,53.5C 80.8049,45.517 85.1382,37.517 89.5,29.5 Z"/></g>
<g><path style="opacity:0.93" fill="#4d92b4" d="M 92.5,29.5 C 93.5,29.5 94.5,29.5 95.5,29.5C 93.0328,35.7678 90.0328,41.7678 86.5,47.5C 85.8333,48.1667 85.1667,48.8333 84.5,49.5C 83.5084,49.3284 82.8417,49.6618 82.5,50.5C 82.1667,50.5 81.8333,50.5 81.5,50.5C 84.8989,43.3691 88.5656,36.3691 92.5,29.5 Z"/></g>
<g><path style="opacity:0.958" fill="#548bb7" d="M 95.5,29.5 C 96.8333,29.5 98.1667,29.5 99.5,29.5C 96.1667,35.5 92.8333,41.5 89.5,47.5C 88.5,47.5 87.5,47.5 86.5,47.5C 90.0328,41.7678 93.0328,35.7678 95.5,29.5 Z"/></g>
<g><path style="opacity:0.926" fill="#5a86b9" d="M 99.5,29.5 C 100.167,29.5 100.833,29.5 101.5,29.5C 99.1122,35.2765 96.4456,40.9432 93.5,46.5C 92.1667,46.8333 90.8333,47.1667 89.5,47.5C 92.8333,41.5 96.1667,35.5 99.5,29.5 Z"/></g>
<g><path style="opacity:0.977" fill="#3aa4ad" d="M 85.5,30.5 C 74.2465,50.0051 63.2465,69.6718 52.5,89.5C 52.1667,89.5 51.8333,89.5 51.5,89.5C 51.4828,87.4352 51.1495,85.4352 50.5,83.5C 61.5072,66.8282 71.5072,49.4948 80.5,31.5C 82.1172,30.962 83.7839,30.6287 85.5,30.5 Z"/></g>
<g><path style="opacity:0.96" fill="#607fbb" d="M 101.5,29.5 C 102.959,29.4326 104.292,29.7659 105.5,30.5C 102.5,35.8333 99.5,41.1667 96.5,46.5C 95.5,46.5 94.5,46.5 93.5,46.5C 96.4456,40.9432 99.1122,35.2765 101.5,29.5 Z"/></g>
<g><path style="opacity:0.937" fill="#6679be" d="M 105.5,30.5 C 106.791,30.2627 107.791,30.596 108.5,31.5C 105.752,36.6657 102.752,41.6657 99.5,46.5C 98.5,46.5 97.5,46.5 96.5,46.5C 99.5,41.1667 102.5,35.8333 105.5,30.5 Z"/></g>
<g><path style="opacity:0.975" fill="#34abab" d="M 80.5,31.5 C 71.5072,49.4948 61.5072,66.8282 50.5,83.5C 50.5,82.5 50.5,81.5 50.5,80.5C 59.2472,64.6702 68.2472,49.0035 77.5,33.5C 78.2905,32.5987 79.2905,31.9321 80.5,31.5 Z"/></g>
<g><path style="opacity:0.9" fill="#6d73c0" d="M 108.5,31.5 C 109.791,31.2627 110.791,31.596 111.5,32.5C 108.263,37.2985 105.263,42.2985 102.5,47.5C 101.209,47.7373 100.209,47.404 99.5,46.5C 102.752,41.6657 105.752,36.6657 108.5,31.5 Z"/></g>
<g><path style="opacity:0.008" fill="#7968c5" d="M 113.5,32.5 C 113.897,31.475 114.563,31.3083 115.5,32C 114.906,32.4643 114.239,32.631 113.5,32.5 Z"/></g>
<g><path style="opacity:0.012" fill="#2db2a8" d="M 73.5,32.5 C 74.8333,33.1667 74.8333,33.1667 73.5,32.5 Z"/></g>
<g><path style="opacity:0.926" fill="#736dc2" d="M 111.5,32.5 C 112.167,32.5 112.833,32.5 113.5,32.5C 113.5,32.8333 113.5,33.1667 113.5,33.5C 110.566,38.3682 107.9,43.3682 105.5,48.5C 104.391,48.4431 103.391,48.1098 102.5,47.5C 105.263,42.2985 108.263,37.2985 111.5,32.5 Z"/></g>
<g><path style="opacity:0.012" fill="#7b64c6" d="M 116.5,32.5 C 117.833,33.1667 117.833,33.1667 116.5,32.5 Z"/></g>
<g><path style="opacity:0.945" fill="#2eb0a9" d="M 77.5,33.5 C 68.2472,49.0035 59.2472,64.6702 50.5,80.5C 50.1667,80.5 49.8333,80.5 49.5,80.5C 49.5,78.5 49.5,76.5 49.5,74.5C 58.2916,62.3259 65.9582,49.3259 72.5,35.5C 74.0495,34.5592 75.7162,33.8925 77.5,33.5 Z"/></g>
<g><path style="opacity:0.016" fill="#7365c4" d="M 119.5,34.5 C 120.833,35.1667 120.833,35.1667 119.5,34.5 Z"/></g>
<g><path style="opacity:0.008" fill="#28b7a6" d="M 68.5,35.5 C 69.8333,36.1667 69.8333,36.1667 68.5,35.5 Z"/></g>
<g><path style="opacity:0.971" fill="#7a65c5" d="M 113.5,33.5 C 115.284,33.8925 116.95,34.5592 118.5,35.5C 115.862,40.4831 113.195,45.4831 110.5,50.5C 108.716,50.1075 107.05,49.4408 105.5,48.5C 107.9,43.3682 110.566,38.3682 113.5,33.5 Z"/></g>
<g><path style="opacity:0.008" fill="#6b67c2" d="M 121.5,35.5 C 122.833,36.1667 122.833,36.1667 121.5,35.5 Z"/></g>
<g><path style="opacity:0.946" fill="#28b6a7" d="M 72.5,35.5 C 65.9582,49.3259 58.2916,62.3259 49.5,74.5C 49.5,72.8333 49.5,71.1667 49.5,69.5C 50.1667,69.5 50.5,69.1667 50.5,68.5C 55.6406,59.1031 60.974,49.7698 66.5,40.5C 68.0905,38.3674 70.0905,36.7007 72.5,35.5 Z"/></g>
<g><path style="opacity:0.978" fill="#6f65c2" d="M 118.5,35.5 C 118.833,35.5 119.167,35.5 119.5,35.5C 120.306,36.7281 121.306,37.7281 122.5,38.5C 119.5,43.1667 116.5,47.8333 113.5,52.5C 112.29,52.0679 111.29,51.4013 110.5,50.5C 113.195,45.4831 115.862,40.4831 118.5,35.5 Z"/></g>
<g><path style="opacity:0.012" fill="#6668c1" d="M 123.5,37.5 C 124.833,38.1667 124.833,38.1667 123.5,37.5 Z"/></g>
<g><path style="opacity:0.008" fill="#606bc1" d="M 125.5,38.5 C 126.833,39.1667 126.833,39.1667 125.5,38.5 Z"/></g>
<g><path style="opacity:0.954" fill="#6268bf" d="M 122.5,38.5 C 122.833,38.5 123.167,38.5 123.5,38.5C 123.833,39.5 124.5,40.1667 125.5,40.5C 122.737,45.7015 119.737,50.7015 116.5,55.5C 115.167,54.8333 114.167,53.8333 113.5,52.5C 116.5,47.8333 119.5,43.1667 122.5,38.5 Z"/></g>
<g><path style="opacity:0.942" fill="#5869bd" d="M 125.5,40.5 C 126.833,41.1667 127.833,42.1667 128.5,43.5C 124.688,47.7767 121.355,52.4434 118.5,57.5C 117.5,57.1667 116.833,56.5 116.5,55.5C 119.737,50.7015 122.737,45.7015 125.5,40.5 Z"/></g>
<g><path style="opacity:0.859" fill="#21bda4" d="M 66.5,40.5 C 60.974,49.7698 55.6406,59.1031 50.5,68.5C 50.8333,65.8333 51.1667,63.1667 51.5,60.5C 52.404,59.791 52.7373,58.791 52.5,57.5C 55.3963,52.7261 58.5629,48.0594 62,43.5C 63.129,41.8588 64.629,40.8588 66.5,40.5 Z"/></g>
<g><path style="opacity:0.945" fill="#4e6bbb" d="M 128.5,43.5 C 129.338,43.8417 129.672,44.5084 129.5,45.5C 126.737,50.7015 123.737,55.7015 120.5,60.5C 120.167,60.5 119.833,60.5 119.5,60.5C 118.89,59.609 118.557,58.609 118.5,57.5C 121.355,52.4434 124.688,47.7767 128.5,43.5 Z"/></g>
<g><path style="opacity:0.928" fill="#436db8" d="M 129.5,45.5 C 130.833,46.1667 131.833,47.1667 132.5,48.5C 129.419,54.3312 126.085,59.9979 122.5,65.5C 122.167,65.5 121.833,65.5 121.5,65.5C 121.737,64.209 121.404,63.209 120.5,62.5C 120.5,61.8333 120.5,61.1667 120.5,60.5C 123.737,55.7015 126.737,50.7015 129.5,45.5 Z"/></g>
<g><path style="opacity:0.008" fill="#3c6eb6" d="M 135.5,50.5 C 135.167,50.5 134.833,50.5 134.5,50.5C 134.833,47.8333 135.167,47.8333 135.5,50.5 Z"/></g>
<g><path style="opacity:0.519" fill="#6878be" d="M 94.5,49.5 C 96.2915,49.366 97.9582,49.6993 99.5,50.5C 99.5,51.1667 99.5,51.8333 99.5,52.5C 97.5,52.5 95.5,52.5 93.5,52.5C 93.5569,51.391 93.8902,50.391 94.5,49.5 Z"/></g>
<g><path style="opacity:0.781" fill="#5d82ba" d="M 94.5,49.5 C 93.8902,50.391 93.5569,51.391 93.5,52.5C 92.8333,52.5 92.5,52.8333 92.5,53.5C 91.209,53.2627 90.209,53.596 89.5,54.5C 88.209,54.2627 87.209,54.596 86.5,55.5C 85.8333,55.5 85.1667,55.5 84.5,55.5C 85.6005,54.3951 86.2671,53.0618 86.5,51.5C 89.1667,50.8333 91.8333,50.1667 94.5,49.5 Z"/></g>
<g><path style="opacity:0.245" fill="#736dc2" d="M 99.5,50.5 C 105.966,51.623 105.966,52.2896 99.5,52.5C 99.5,51.8333 99.5,51.1667 99.5,50.5 Z"/></g>
<g><path style="opacity:0.935" fill="#376fb5" d="M 132.5,48.5 C 133.167,49.1667 133.833,49.8333 134.5,50.5C 134.557,51.609 134.89,52.609 135.5,53.5C 134.624,53.3691 133.957,53.7025 133.5,54.5C 130.392,60.3944 127.059,66.061 123.5,71.5C 123.737,70.209 123.404,69.209 122.5,68.5C 122.5,67.5 122.5,66.5 122.5,65.5C 126.085,59.9979 129.419,54.3312 132.5,48.5 Z"/></g>
<g><path style="opacity:0.012" fill="#3770b5" d="M 135.5,50.5 C 136.833,51.1667 136.833,51.1667 135.5,50.5 Z"/></g>
<g><path style="opacity:0.004" fill="#8383d5" d="M 92.5,53.5 C 96.1817,53.3347 99.8484,53.5014 103.5,54C 99.6425,54.8099 95.9758,54.6433 92.5,53.5 Z"/></g>
<g><path style="opacity:0.01" fill="#2e72b2" d="M 138.5,55.5 C 138.167,55.5 137.833,55.5 137.5,55.5C 137.833,52.8333 138.167,52.8333 138.5,55.5 Z"/></g>
<g><path style="opacity:0.004" fill="#4c93b4" d="M 84.5,49.5 C 87.925,49.3668 88.2583,50.0335 85.5,51.5C 84.5084,51.3284 83.8417,51.6618 83.5,52.5C 82.5084,52.3284 81.8417,52.6618 81.5,53.5C 80.8333,53.5 80.5,53.8333 80.5,54.5C 79.8333,54.5 79.5,54.8333 79.5,55.5C 77.1667,55.8333 75.8333,57.1667 75.5,59.5C 74.8333,59.5 74.5,59.8333 74.5,60.5C 73.0937,60.9731 72.427,61.9731 72.5,63.5C 71.8333,64.1667 71.1667,64.8333 70.5,65.5C 70.5,64.5 70.5,63.5 70.5,62.5C 71.3382,62.1583 71.6716,61.4916 71.5,60.5C 72.1667,60.5 72.5,60.1667 72.5,59.5C 73.3382,59.1583 73.6716,58.4916 73.5,57.5C 74.1667,57.5 74.5,57.1667 74.5,56.5C 75.1667,56.5 75.5,56.1667 75.5,55.5C 76.1667,55.5 76.5,55.1667 76.5,54.5C 77.1667,54.5 77.5,54.1667 77.5,53.5C 78.1667,53.5 78.5,53.1667 78.5,52.5C 79.4916,52.6716 80.1583,52.3382 80.5,51.5C 81.4916,51.6716 82.1583,51.3382 82.5,50.5C 83.4916,50.6716 84.1583,50.3382 84.5,49.5 Z"/></g>
<g><path style="opacity:0.008" fill="#6082bc" d="M 89.5,54.5 C 90.2389,54.369 90.9056,54.5357 91.5,55C 90.5632,55.6917 89.8966,55.525 89.5,54.5 Z"/></g>
<g><path style="opacity:0.907" fill="#2a71b2" d="M 135.5,53.5 C 136.167,54.1667 136.833,54.8333 137.5,55.5C 137.5,56.1667 137.5,56.8333 137.5,57.5C 132.833,64.8333 128.167,72.1667 123.5,79.5C 123.5,76.8333 123.5,74.1667 123.5,71.5C 127.059,66.061 130.392,60.3944 133.5,54.5C 133.957,53.7025 134.624,53.3691 135.5,53.5 Z"/></g>
<g><path style="opacity:0.008" fill="#5a87b9" d="M 86.5,56.5 C 86.5,56.1667 86.5,55.8333 86.5,55.5C 89.1667,55.8333 89.1667,56.1667 86.5,56.5 Z"/></g>
<g><path style="opacity:0.008" fill="#2872b2" d="M 138.5,55.5 C 139.525,55.8966 139.692,56.5632 139,57.5C 138.536,56.9056 138.369,56.2389 138.5,55.5 Z"/></g>
<g><path style="opacity:0.012" fill="#33caae" d="M 52.5,57.5 C 51.475,57.1034 51.3083,56.4368 52,55.5C 52.4643,56.0944 52.631,56.7611 52.5,57.5 Z"/></g>
<g><path style="opacity:0.768" fill="#508fb5" d="M 85.5,51.5 C 85.8333,51.5 86.1667,51.5 86.5,51.5C 86.2671,53.0618 85.6005,54.3951 84.5,55.5C 84.1667,56.1667 83.8333,56.8333 83.5,57.5C 80.5,58.5 78.5,60.5 77.5,63.5C 76.6618,63.8417 76.3284,64.5084 76.5,65.5C 74.8958,66.287 74.2291,67.6203 74.5,69.5C 72.8819,72.1709 72.2153,75.1709 72.5,78.5C 71.8333,78.5 71.1667,78.5 70.5,78.5C 70.5,75.5 70.5,72.5 70.5,69.5C 71.7384,67.7857 72.405,65.7857 72.5,63.5C 73.9063,63.0269 74.573,62.0269 74.5,60.5C 75.1667,60.5 75.5,60.1667 75.5,59.5C 77.1667,58.5 78.5,57.1667 79.5,55.5C 80.1667,55.5 80.5,55.1667 80.5,54.5C 81.1667,54.5 81.5,54.1667 81.5,53.5C 82.4916,53.6716 83.1583,53.3382 83.5,52.5C 84.4916,52.6716 85.1583,52.3382 85.5,51.5 Z"/></g>
<g><path style="opacity:0.012" fill="#5b89bb" d="M 86.5,56.5 C 85.8333,57.1667 85.8333,57.1667 86.5,56.5 Z"/></g>
<g><path style="opacity:0.016" fill="#558bb8" d="M 83.5,57.5 C 84.8333,58.1667 84.8333,58.1667 83.5,57.5 Z"/></g>
<g><path style="opacity:0.91" fill="#2173af" d="M 137.5,57.5 C 137.833,58.1667 138.167,58.8333 138.5,59.5C 134.108,65.9343 129.941,72.601 126,79.5C 123.546,87.0741 120.046,94.0741 115.5,100.5C 115.167,100.5 114.833,100.5 114.5,100.5C 114.5,99.5 114.5,98.5 114.5,97.5C 119.062,92.3766 122.062,86.3766 123.5,79.5C 128.167,72.1667 132.833,64.8333 137.5,57.5 Z"/></g>
<g><path style="opacity:0.012" fill="#34c9af" d="M 51.5,60.5 C 50.475,60.1034 50.3083,59.4368 51,58.5C 51.4643,59.0944 51.631,59.7611 51.5,60.5 Z"/></g>
<g><path style="opacity:0.012" fill="#2b79b5" d="M 139.5,60.5 C 139.369,59.7611 139.536,59.0944 140,58.5C 140.692,59.4368 140.525,60.1034 139.5,60.5 Z"/></g>
<g><path style="opacity:0.012" fill="#486cb9" d="M 119.5,60.5 C 119.5,61.1667 119.5,61.8333 119.5,62.5C 118.167,61.8333 118.167,61.1667 119.5,60.5 Z"/></g>
<g><path style="opacity:0.012" fill="#24bda6" d="M 49.5,61.5 C 50.525,61.8966 50.6917,62.5632 50,63.5C 49.5357,62.9056 49.369,62.2389 49.5,61.5 Z"/></g>
<g><path style="opacity:0.01" fill="#436eb8" d="M 119.5,62.5 C 119.833,62.5 120.167,62.5 120.5,62.5C 120.167,65.1667 119.833,65.1667 119.5,62.5 Z"/></g>
<g><path style="opacity:0.972" fill="#1874ad" d="M 138.5,59.5 C 138.5,60.1667 138.833,60.5 139.5,60.5C 139.5,61.8333 139.5,63.1667 139.5,64.5C 132.472,77.1837 125.472,89.8504 118.5,102.5C 117.5,101.833 116.5,101.167 115.5,100.5C 120.046,94.0741 123.546,87.0741 126,79.5C 129.941,72.601 134.108,65.9343 138.5,59.5 Z"/></g>
<g><path style="opacity:0.012" fill="#1a75ae" d="M 140.5,61.5 C 141.525,61.8966 141.692,62.5632 141,63.5C 140.536,62.9056 140.369,62.2389 140.5,61.5 Z"/></g>
<g><path style="opacity:0.016" fill="#5090b5" d="M 77.5,63.5 C 78.8333,64.1667 78.8333,64.1667 77.5,63.5 Z"/></g>
<g><path style="opacity:0.964" fill="#1074aa" d="M 139.5,64.5 C 140.451,65.9187 140.784,67.5853 140.5,69.5C 133.344,80.4687 126.677,91.802 120.5,103.5C 119.833,103.167 119.167,102.833 118.5,102.5C 125.472,89.8504 132.472,77.1837 139.5,64.5 Z"/></g>
<g><path style="opacity:0.016" fill="#5090b6" d="M 76.5,65.5 C 77.8333,66.1667 77.8333,66.1667 76.5,65.5 Z"/></g>
<g><path style="opacity:0.012" fill="#4a7bc3" d="M 121.5,65.5 C 121.5,66.5 121.5,67.5 121.5,68.5C 120.167,67.5 120.167,66.5 121.5,65.5 Z"/></g>
<g><path style="opacity:0.006" fill="#33c1ae" d="M 49.5,69.5 C 48.3871,68.0536 48.2204,66.3869 49,64.5C 49.4935,66.1341 49.6602,67.8008 49.5,69.5 Z"/></g>
<g><path style="opacity:0.006" fill="#1d7ab0" d="M 141.5,69.5 C 141.34,67.8008 141.506,66.1341 142,64.5C 142.78,66.3869 142.613,68.0536 141.5,69.5 Z"/></g>
<g><path style="opacity:0.004" fill="#5291b7" d="M 75.5,69.5 C 75.369,68.7611 75.5357,68.0944 76,67.5C 76.6917,68.4368 76.525,69.1034 75.5,69.5 Z"/></g>
<g><path style="opacity:0.925" fill="#4798b2" d="M 68.5,66.5 C 68.5,67.1667 68.5,67.8333 68.5,68.5C 67.5386,70.2646 67.2053,72.2646 67.5,74.5C 63.1667,81.1667 58.8333,87.8333 54.5,94.5C 54.1667,94.5 53.8333,94.5 53.5,94.5C 53.5,93.5 53.5,92.5 53.5,91.5C 58.7648,83.2999 63.7648,74.9666 68.5,66.5 Z"/></g>
<g><path style="opacity:0.012" fill="#63a0c7" d="M 74.5,69.5 C 74.8333,69.5 75.1667,69.5 75.5,69.5C 75.1667,73.5 74.8333,73.5 74.5,69.5 Z"/></g>
<g><path style="opacity:0.902" fill="#4d92b4" d="M 67.5,74.5 C 67.5,76.5 67.5,78.5 67.5,80.5C 63.8477,86.4641 60.181,92.4641 56.5,98.5C 55.8333,97.8333 55.1667,97.1667 54.5,96.5C 54.5,95.8333 54.5,95.1667 54.5,94.5C 58.8333,87.8333 63.1667,81.1667 67.5,74.5 Z"/></g>
<g><path style="opacity:0.012" fill="#6da0ce" d="M 73.5,73.5 C 74.6291,75.6282 74.7958,77.9615 74,80.5C 73.5034,78.1902 73.3367,75.8568 73.5,73.5 Z"/></g>
<g><path style="opacity:0.976" fill="#116da7" d="M 140.5,69.5 C 140.276,71.7867 139.609,73.9534 138.5,76C 132.313,85.1076 126.979,94.6076 122.5,104.5C 121.508,104.672 120.842,104.338 120.5,103.5C 126.677,91.802 133.344,80.4687 140.5,69.5 Z"/></g>
<g><path style="opacity:0.005" fill="#51cec3" d="M 47.5,70.5 C 48.6378,73.3035 48.8045,76.3035 48,79.5C 47.502,76.5184 47.3354,73.5184 47.5,70.5 Z"/></g>
<g><path style="opacity:0.022" fill="#4f90b5" d="M 69.5,65.5 C 69.8333,65.5 70.1667,65.5 70.5,65.5C 70.5,66.8333 70.5,68.1667 70.5,69.5C 69.5166,73.2984 69.1832,77.2984 69.5,81.5C 69.1667,81.5 68.8333,81.5 68.5,81.5C 68.5,77.1667 68.5,72.8333 68.5,68.5C 69.404,67.791 69.7373,66.791 69.5,65.5 Z"/></g>
<g><path style="opacity:0.01" fill="#4080c2" d="M 121.5,68.5 C 121.833,68.5 122.167,68.5 122.5,68.5C 122.167,84.5 121.833,84.5 121.5,68.5 Z"/></g>
<g><path style="opacity:0.004" fill="#3173b5" d="M 142.5,70.5 C 143.638,73.3035 143.805,76.3035 143,79.5C 142.502,76.5184 142.335,73.5184 142.5,70.5 Z"/></g>
<g><path style="opacity:0.17" fill="#5a85ba" d="M 70.5,78.5 C 71.1667,78.5 71.8333,78.5 72.5,78.5C 72.6567,79.8734 72.49,81.2068 72,82.5C 71.6174,81.944 71.1174,81.6107 70.5,81.5C 70.5,80.5 70.5,79.5 70.5,78.5 Z"/></g>
<g><path style="opacity:0.999" fill="#1266a4" d="M 140.5,69.5 C 140.833,69.5 141.167,69.5 141.5,69.5C 141.5,71.1667 141.5,72.8333 141.5,74.5C 135.263,84.6341 129.263,94.9675 123.5,105.5C 122.833,105.5 122.5,105.167 122.5,104.5C 126.979,94.6076 132.313,85.1076 138.5,76C 139.609,73.9534 140.276,71.7867 140.5,69.5 Z"/></g>
<g><path style="opacity:0.915" fill="#548bb7" d="M 67.5,80.5 C 67.5,81.1667 67.8333,81.5 68.5,81.5C 68.5,82.5 68.5,83.5 68.5,84.5C 64.9294,89.9666 61.5961,95.6332 58.5,101.5C 57.8333,100.833 57.1667,100.167 56.5,99.5C 56.5,99.1667 56.5,98.8333 56.5,98.5C 60.181,92.4641 63.8477,86.4641 67.5,80.5 Z"/></g>
<g><path style="opacity:0.967" fill="#145ca0" d="M 141.5,74.5 C 141.425,77.2062 141.092,79.8728 140.5,82.5C 135.263,90.6319 130.263,98.9652 125.5,107.5C 124.5,107.167 123.833,106.5 123.5,105.5C 129.263,94.9675 135.263,84.6341 141.5,74.5 Z"/></g>
<g><path style="opacity:0.009" fill="#548bb7" d="M 69.5,81.5 C 69.8333,81.5 70.1667,81.5 70.5,81.5C 70.7373,82.791 70.404,83.791 69.5,84.5C 69.5,83.5 69.5,82.5 69.5,81.5 Z"/></g>
<g><path style="opacity:0.008" fill="#2861a9" d="M 141.5,85.5 C 141.34,83.8008 141.506,82.1341 142,80.5C 142.78,82.3869 142.613,84.0536 141.5,85.5 Z"/></g>
<g><path style="opacity:0.004" fill="#4cb8bd" d="M 49.5,80.5 C 49.6602,82.1992 49.4935,83.8659 49,85.5C 48.2204,83.6131 48.3871,81.9464 49.5,80.5 Z"/></g>
<g><path style="opacity:0.934" fill="#5a86b9" d="M 68.5,84.5 C 68.8333,84.5 69.1667,84.5 69.5,84.5C 69.5,85.5 69.5,86.5 69.5,87.5C 66.4148,92.672 63.0814,97.672 59.5,102.5C 58.8333,102.5 58.5,102.167 58.5,101.5C 61.5961,95.6332 64.9294,89.9666 68.5,84.5 Z"/></g>
<g><path style="opacity:0.012" fill="#1c579f" d="M 140.5,85.5 C 140.833,85.5 141.167,85.5 141.5,85.5C 141.167,89.5 140.833,89.5 140.5,85.5 Z"/></g>
<g><path style="opacity:0.008" fill="#3fa3b0" d="M 49.5,86.5 C 50.525,86.8966 50.6917,87.5632 50,88.5C 49.5357,87.9056 49.369,87.2389 49.5,86.5 Z"/></g>
<g><path style="opacity:0.711" fill="#174d99" d="M 138.5,89.5 C 137.962,91.1172 137.629,92.7839 137.5,94.5C 136.662,94.8417 136.328,95.5084 136.5,96.5C 135.662,96.8417 135.328,97.5084 135.5,98.5C 134.662,98.8417 134.328,99.5084 134.5,100.5C 133.662,100.842 133.328,101.508 133.5,102.5C 132.833,102.5 132.5,102.833 132.5,103.5C 131.662,103.842 131.328,104.508 131.5,105.5C 130.094,105.973 129.427,106.973 129.5,108.5C 128.833,108.5 128.5,108.833 128.5,109.5C 127.508,109.672 126.842,109.338 126.5,108.5C 130.25,101.998 134.25,95.6645 138.5,89.5 Z"/></g>
<g><path style="opacity:0.008" fill="#54acc0" d="M 51.5,89.5 C 51.631,90.2389 51.4643,90.9056 51,91.5C 50.3083,90.5632 50.475,89.8966 51.5,89.5 Z"/></g>
<g><path style="opacity:0.941" fill="#6779be" d="M 71.5,90.5 C 72.3382,90.8417 72.6716,91.5084 72.5,92.5C 69.8333,97.8333 67.1667,103.167 64.5,108.5C 63.5,108.167 62.8333,107.5 62.5,106.5C 64.9969,100.835 67.9969,95.5016 71.5,90.5 Z"/></g>
<g><path style="opacity:0.008" fill="#2c5ca9" d="M 139.5,89.5 C 140.525,89.8966 140.692,90.5632 140,91.5C 139.536,90.9056 139.369,90.2389 139.5,89.5 Z"/></g>
<g><path style="opacity:0.991" fill="#16549c" d="M 140.5,82.5 C 140.5,83.5 140.5,84.5 140.5,85.5C 139.566,86.5676 139.232,87.901 139.5,89.5C 139.167,89.5 138.833,89.5 138.5,89.5C 134.25,95.6645 130.25,101.998 126.5,108.5C 125.833,108.5 125.5,108.167 125.5,107.5C 130.263,98.9652 135.263,90.6319 140.5,82.5 Z"/></g>
<g><path style="opacity:0.008" fill="#4898b3" d="M 52.5,94.5 C 51.475,94.1034 51.3083,93.4368 52,92.5C 52.4643,93.0944 52.631,93.7611 52.5,94.5 Z"/></g>
<g><path style="opacity:0.008" fill="#184e9a" d="M 138.5,94.5 C 138.369,93.7611 138.536,93.0944 139,92.5C 139.692,93.4368 139.525,94.1034 138.5,94.5 Z"/></g>
<g><path style="opacity:0.965" fill="#6d73c0" d="M 72.5,92.5 C 73.8333,93.1667 74.8333,94.1667 75.5,95.5C 72.015,99.7904 69.015,104.457 66.5,109.5C 65.8333,109.167 65.1667,108.833 64.5,108.5C 67.1667,103.167 69.8333,97.8333 72.5,92.5 Z"/></g>
<g><path style="opacity:0.012" fill="#1670aa" d="M 114.5,94.5 C 115.833,95.1667 115.833,95.1667 114.5,94.5 Z"/></g>
<g><path style="opacity:0.01" fill="#184c99" d="M 137.5,94.5 C 137.833,94.5 138.167,94.5 138.5,94.5C 138.672,95.4916 138.338,96.1583 137.5,96.5C 137.5,95.8333 137.5,95.1667 137.5,94.5 Z"/></g>
<g><path style="opacity:0.004" fill="#4d94b5" d="M 52.5,94.5 C 52.8333,94.5 53.1667,94.5 53.5,94.5C 53.5,95.1667 53.5,95.8333 53.5,96.5C 52.6618,96.1583 52.3284,95.4916 52.5,94.5 Z"/></g>
<g><path style="opacity:1" fill="#5f80bb" d="M 69.5,87.5 C 70.4013,88.2905 71.0679,89.2905 71.5,90.5C 67.9969,95.5016 64.9969,100.835 62.5,106.5C 61.5116,105.205 60.5116,103.872 59.5,102.5C 63.0814,97.672 66.4148,92.672 69.5,87.5 Z"/></g>
<g><path style="opacity:0.954" fill="#736dc2" d="M 75.5,95.5 C 76.1667,95.5 76.5,95.8333 76.5,96.5C 74.1005,101.632 71.4338,106.632 68.5,111.5C 67.5,111.167 66.8333,110.5 66.5,109.5C 69.015,104.457 72.015,99.7904 75.5,95.5 Z"/></g>
<g><path style="opacity:0.016" fill="#4f91b5" d="M 53.5,96.5 C 53.8333,96.5 54.1667,96.5 54.5,96.5C 54.3147,97.1701 53.9813,97.1701 53.5,96.5 Z"/></g>
<g><path style="opacity:0.016" fill="#7a64c6" d="M 79.5,96.5 C 80.8333,97.1667 80.8333,97.1667 79.5,96.5 Z"/></g>
<g><path style="opacity:0.012" fill="#1f74af" d="M 114.5,97.5 C 113.833,96.1667 113.833,96.1667 114.5,97.5 Z"/></g>
<g><path style="opacity:0.008" fill="#184c99" d="M 136.5,96.5 C 136.833,96.5 137.167,96.5 137.5,96.5C 137.672,97.4916 137.338,98.1583 136.5,98.5C 136.5,97.8333 136.5,97.1667 136.5,96.5 Z"/></g>
<g><path style="opacity:0.939" fill="#7a65c5" d="M 76.5,96.5 C 77.391,97.1098 78.391,97.4431 79.5,97.5C 80.1667,98.1667 80.8333,98.8333 81.5,99.5C 79.1005,104.632 76.4338,109.632 73.5,114.5C 73.1667,114.5 72.8333,114.5 72.5,114.5C 71.1667,113.5 69.8333,112.5 68.5,111.5C 71.4338,106.632 74.1005,101.632 76.5,96.5 Z"/></g>
<g><path style="opacity:0.008" fill="#2176b1" d="M 113.5,100.5 C 112.475,100.103 112.308,99.4368 113,98.5C 113.464,99.0944 113.631,99.7611 113.5,100.5 Z"/></g>
<g><path style="opacity:0.008" fill="#184c99" d="M 135.5,98.5 C 135.833,98.5 136.167,98.5 136.5,98.5C 136.672,99.4916 136.338,100.158 135.5,100.5C 135.5,99.8333 135.5,99.1667 135.5,98.5 Z"/></g>
<g><path style="opacity:0.012" fill="#7075ce" d="M 86.5,100.5 C 87.2506,99.4265 88.2506,99.2599 89.5,100C 88.552,100.483 87.552,100.649 86.5,100.5 Z"/></g>
<g><path style="opacity:0.004" fill="#5689b8" d="M 56.5,99.5 C 56.631,100.239 56.4643,100.906 56,101.5C 55.3083,100.563 55.475,99.8966 56.5,99.5 Z"/></g>
<g><path style="opacity:0.937" fill="#6e65c2" d="M 81.5,99.5 C 83.1172,100.038 84.7839,100.371 86.5,100.5C 86.5,100.833 86.5,101.167 86.5,101.5C 82.7487,105.995 79.7487,110.995 77.5,116.5C 76.1667,115.833 74.8333,115.167 73.5,114.5C 76.4338,109.632 79.1005,104.632 81.5,99.5 Z"/></g>
<g><path style="opacity:0.012" fill="#6476cb" d="M 90.5,101.5 C 91.2506,100.427 92.2506,100.26 93.5,101C 92.552,101.483 91.552,101.649 90.5,101.5 Z"/></g>
<g><path style="opacity:0.004" fill="#1c75ae" d="M 113.5,100.5 C 113.833,100.5 114.167,100.5 114.5,100.5C 114.5,100.833 114.5,101.167 114.5,101.5C 114.167,101.167 113.833,100.833 113.5,100.5 Z"/></g>
<g><path style="opacity:0.899" fill="#6268bf" d="M 86.5,101.5 C 87.791,101.263 88.791,101.596 89.5,102.5C 86.5662,107.368 83.8995,112.368 81.5,117.5C 80.5,117.5 79.5,117.5 78.5,117.5C 78.5,116.833 78.1667,116.5 77.5,116.5C 79.7487,110.995 82.7487,105.995 86.5,101.5 Z"/></g>
<g><path style="opacity:0.008" fill="#1d74af" d="M 114.5,101.5 C 115.833,102.167 115.833,102.167 114.5,101.5 Z"/></g>
<g><path style="opacity:0.004" fill="#184b99" d="M 134.5,100.5 C 134.833,100.5 135.167,100.5 135.5,100.5C 135.672,101.492 135.338,102.158 134.5,102.5C 134.5,101.833 134.5,101.167 134.5,100.5 Z"/></g>
<g><path style="opacity:0.952" fill="#5969bd" d="M 89.5,102.5 C 90.1667,102.5 90.8333,102.5 91.5,102.5C 89.8776,108.412 87.2109,113.745 83.5,118.5C 82.8333,118.5 82.1667,118.5 81.5,118.5C 81.5,118.167 81.5,117.833 81.5,117.5C 83.8995,112.368 86.5662,107.368 89.5,102.5 Z"/></g>
<g><path style="opacity:0.01" fill="#507bc5" d="M 97.5,103.5 C 98.2506,102.427 99.2506,102.26 100.5,103C 99.552,103.483 98.552,103.649 97.5,103.5 Z"/></g>
<g><path style="opacity:0.012" fill="#184b99" d="M 133.5,102.5 C 133.833,102.5 134.167,102.5 134.5,102.5C 134.315,103.17 133.981,103.17 133.5,102.5 Z"/></g>
<g><path style="opacity:0.93" fill="#436db8" d="M 95.5,103.5 C 96.1667,103.5 96.8333,103.5 97.5,103.5C 97.8417,104.338 98.5084,104.672 99.5,104.5C 96.8333,109.833 94.1667,115.167 91.5,120.5C 90.1667,120.167 88.8333,119.833 87.5,119.5C 90.1667,114.167 92.8333,108.833 95.5,103.5 Z"/></g>
<g><path style="opacity:0.012" fill="#3a7bbd" d="M 104.5,105.5 C 104.897,104.475 105.563,104.308 106.5,105C 105.906,105.464 105.239,105.631 104.5,105.5 Z"/></g>
<g><path style="opacity:0.008" fill="#184d99" d="M 132.5,103.5 C 132.833,103.5 133.167,103.5 133.5,103.5C 133.672,104.492 133.338,105.158 132.5,105.5C 132.5,104.833 132.5,104.167 132.5,103.5 Z"/></g>
<g><path style="opacity:0.904" fill="#376fb5" d="M 99.5,104.5 C 101.117,105.038 102.784,105.371 104.5,105.5C 104.5,105.833 104.5,106.167 104.5,106.5C 100.749,110.995 97.7487,115.995 95.5,121.5C 94.5,121.5 93.5,121.5 92.5,121.5C 92.5,120.833 92.1667,120.5 91.5,120.5C 94.1667,115.167 96.8333,109.833 99.5,104.5 Z"/></g>
<g><path style="opacity:0.016" fill="#184c9a" d="M 131.5,105.5 C 131.833,105.5 132.167,105.5 132.5,105.5C 132.315,106.17 131.981,106.17 131.5,105.5 Z"/></g>
<g><path style="opacity:0.949" fill="#2a71b2" d="M 104.5,106.5 C 105.791,106.263 106.791,106.596 107.5,107.5C 105.1,112.632 102.434,117.632 99.5,122.5C 98.0413,122.567 96.7079,122.234 95.5,121.5C 97.7487,115.995 100.749,110.995 104.5,106.5 Z"/></g>
<g><path style="opacity:0.924" fill="#2173af" d="M 107.5,107.5 C 108.492,107.328 109.158,107.662 109.5,108.5C 106.058,113.382 103.724,118.715 102.5,124.5C 101.29,124.068 100.29,123.401 99.5,122.5C 102.434,117.632 105.1,112.632 107.5,107.5 Z"/></g>
<g><path style="opacity:0.008" fill="#184b99" d="M 130.5,107.5 C 131.833,108.167 131.833,108.167 130.5,107.5 Z"/></g>
<g><path style="opacity:0.016" fill="#184d9a" d="M 129.5,108.5 C 129.833,108.5 130.167,108.5 130.5,108.5C 130.315,109.17 129.981,109.17 129.5,108.5 Z"/></g>
<g><path style="opacity:0.008" fill="#184d9a" d="M 128.5,109.5 C 128.833,109.5 129.167,109.5 129.5,109.5C 129.315,110.17 128.981,110.17 128.5,109.5 Z"/></g>
<g><path style="opacity:0.953" fill="#1374ab" d="M 109.5,108.5 C 111.853,109.34 113.853,110.674 115.5,112.5C 112.415,117.672 109.081,122.672 105.5,127.5C 105.167,127.5 104.833,127.5 104.5,127.5C 103.833,126.5 103.167,125.5 102.5,124.5C 103.724,118.715 106.058,113.382 109.5,108.5 Z"/></g>
<g><path style="opacity:0.006" fill="#184f9a" d="M 128.5,110.5 C 128.103,111.525 127.437,111.692 126.5,111C 127.094,110.536 127.761,110.369 128.5,110.5 Z"/></g>
<g><path style="opacity:0.999" fill="#516bbb" d="M 91.5,102.5 C 92.8333,102.833 94.1667,103.167 95.5,103.5C 92.8333,108.833 90.1667,114.167 87.5,119.5C 86.8333,119.5 86.1667,119.5 85.5,119.5C 85.1583,118.662 84.4916,118.328 83.5,118.5C 87.2109,113.745 89.8776,108.412 91.5,102.5 Z"/></g>
<g><path style="opacity:0.008" fill="#7b64c6" d="M 72.5,114.5 C 72.5,114.833 72.5,115.167 72.5,115.5C 69.8333,115.167 69.8333,114.833 72.5,114.5 Z"/></g>
<g><path style="opacity:0.016" fill="#145fa2" d="M 120.5,115.5 C 119.833,114.167 119.833,114.167 120.5,115.5 Z"/></g>
<g><path style="opacity:0.012" fill="#7764c5" d="M 72.5,115.5 C 73.8333,116.167 73.8333,116.167 72.5,115.5 Z"/></g>
<g><path style="opacity:0.951" fill="#145ca0" d="M 117.5,114.5 C 118.167,114.833 118.833,115.167 119.5,115.5C 119.5,116.167 119.5,116.833 119.5,117.5C 115.988,124.534 111.988,131.201 107.5,137.5C 107.5,135.833 107.5,134.167 107.5,132.5C 111.337,126.83 114.67,120.83 117.5,114.5 Z"/></g>
<g><path style="opacity:0.008" fill="#145ca0" d="M 120.5,115.5 C 121.833,116.167 121.833,116.167 120.5,115.5 Z"/></g>
<g><path style="opacity:0.012" fill="#7b77d4" d="M 78.5,117.5 C 78.1034,118.525 77.4368,118.692 76.5,118C 77.0944,117.536 77.7611,117.369 78.5,117.5 Z"/></g>
<g><path style="opacity:0.012" fill="#7379d2" d="M 81.5,118.5 C 81.1034,119.525 80.4368,119.692 79.5,119C 80.0944,118.536 80.7611,118.369 81.5,118.5 Z"/></g>
<g><path style="opacity:0.971" fill="#174e9a" d="M 120.5,118.5 C 121.338,118.842 121.672,119.508 121.5,120.5C 114.099,134.301 106.432,147.968 98.5,161.5C 97.8333,161.5 97.1667,161.5 96.5,161.5C 99.8621,155.15 103.195,148.816 106.5,142.5C 111.668,134.836 116.335,126.836 120.5,118.5 Z"/></g>
<g><path style="opacity:0.008" fill="#5a6ec1" d="M 85.5,119.5 C 85.5,119.833 85.5,120.167 85.5,120.5C 81.5,120.167 81.5,119.833 85.5,119.5 Z"/></g>
<g><path style="opacity:0.012" fill="#18519c" d="M 122.5,120.5 C 122.369,119.761 122.536,119.094 123,118.5C 123.692,119.437 123.525,120.103 122.5,120.5 Z"/></g>
<g><path style="opacity:0.012" fill="#7067c4" d="M 69.5,121.5 C 69.8966,120.475 70.5632,120.308 71.5,121C 70.9056,121.464 70.2389,121.631 69.5,121.5 Z"/></g>
<g><path style="opacity:0.012" fill="#5b78c8" d="M 85.5,120.5 C 86.552,120.351 87.552,120.517 88.5,121C 87.2506,121.74 86.2506,121.573 85.5,120.5 Z"/></g>
<g><path style="opacity:0.012" fill="#507ac5" d="M 92.5,121.5 C 91.7494,122.573 90.7494,122.74 89.5,122C 90.448,121.517 91.448,121.351 92.5,121.5 Z"/></g>
<g><path style="opacity:0.969" fill="#194797" d="M 121.5,120.5 C 121.833,120.5 122.167,120.5 122.5,120.5C 122.5,121.5 122.5,122.5 122.5,123.5C 114.665,135.832 107.332,148.498 100.5,161.5C 99.8333,161.5 99.1667,161.5 98.5,161.5C 106.432,147.968 114.099,134.301 121.5,120.5 Z"/></g>
<g><path style="opacity:0.012" fill="#6c72cb" d="M 74.5,123.5 C 74.8966,122.475 75.5632,122.308 76.5,123C 75.9056,123.464 75.2389,123.631 74.5,123.5 Z"/></g>
<g><path style="opacity:0.863" fill="#6966c1" d="M 69.5,121.5 C 70.9303,122.537 72.597,123.204 74.5,123.5C 74.5,123.833 74.5,124.167 74.5,124.5C 72.5712,129.372 69.9045,133.705 66.5,137.5C 66.5,133.833 66.5,130.167 66.5,126.5C 67.3127,124.739 68.3127,123.072 69.5,121.5 Z"/></g>
<g><path style="opacity:0.012" fill="#8171d2" d="M 66.5,126.5 C 65.4265,125.749 65.2599,124.749 66,123.5C 66.4828,124.448 66.6495,125.448 66.5,126.5 Z"/></g>
<g><path style="opacity:0.904" fill="#5b69be" d="M 74.5,124.5 C 75.9587,124.433 77.2921,124.766 78.5,125.5C 76.9353,129.629 75.102,133.629 73,137.5C 71.9331,139.692 70.4331,141.358 68.5,142.5C 68.1667,142.5 67.8333,142.5 67.5,142.5C 67.634,140.708 67.3007,139.042 66.5,137.5C 69.9045,133.705 72.5712,129.372 74.5,124.5 Z"/></g>
<g><path style="opacity:0.998" fill="#1268a5" d="M 115.5,112.5 C 116.5,112.833 117.167,113.5 117.5,114.5C 114.67,120.83 111.337,126.83 107.5,132.5C 106.833,131.5 106.167,130.5 105.5,129.5C 105.5,128.833 105.5,128.167 105.5,127.5C 109.081,122.672 112.415,117.672 115.5,112.5 Z"/></g>
<g><path style="opacity:1" fill="#16549c" d="M 119.5,117.5 C 120.167,117.5 120.5,117.833 120.5,118.5C 116.335,126.836 111.668,134.836 106.5,142.5C 106.629,140.784 106.962,139.117 107.5,137.5C 111.988,131.201 115.988,124.534 119.5,117.5 Z"/></g>
<g><path style="opacity:0.012" fill="#29479d" d="M 124.5,127.5 C 124.343,126.127 124.51,124.793 125,123.5C 125.765,125.066 125.598,126.399 124.5,127.5 Z"/></g>
<g><path style="opacity:0.008" fill="#4a6ebb" d="M 82.5,125.5 C 83.8333,126.167 83.8333,126.167 82.5,125.5 Z"/></g>
<g><path style="opacity:0.971" fill="#1b3b92" d="M 123.5,125.5 C 123.5,126.167 123.5,126.833 123.5,127.5C 117.072,137.928 111.072,148.594 105.5,159.5C 105.5,159.833 105.5,160.167 105.5,160.5C 104.5,160.5 103.5,160.5 102.5,160.5C 109.263,148.632 116.263,136.965 123.5,125.5 Z"/></g>
<g><path style="opacity:0.941" fill="#4f6bbb" d="M 78.5,125.5 C 79.7079,126.234 81.0413,126.567 82.5,126.5C 82.5,126.833 82.5,127.167 82.5,127.5C 78.7361,134.038 74.7361,140.372 70.5,146.5C 70.1667,146.5 69.8333,146.5 69.5,146.5C 69.1667,145.167 68.8333,143.833 68.5,142.5C 70.4331,141.358 71.9331,139.692 73,137.5C 75.102,133.629 76.9353,129.629 78.5,125.5 Z"/></g>
<g><path style="opacity:0.939" fill="#476cb9" d="M 82.5,127.5 C 83.404,128.209 83.7373,129.209 83.5,130.5C 79.442,136.57 75.7753,142.903 72.5,149.5C 71.0937,149.027 70.427,148.027 70.5,146.5C 74.7361,140.372 78.7361,134.038 82.5,127.5 Z"/></g>
<g><path style="opacity:0.02" fill="#1172aa" d="M 104.5,127.5 C 103.833,128.167 103.833,128.167 104.5,127.5 Z"/></g>
<g><path style="opacity:0.004" fill="#466cb8" d="M 84.5,127.5 C 85.6453,131.311 85.8119,135.311 85,139.5C 84.5012,135.514 84.3345,131.514 84.5,127.5 Z"/></g>
<g><path style="opacity:0.008" fill="#1868a6" d="M 105.5,129.5 C 105.649,130.552 105.483,131.552 105,132.5C 104.26,131.251 104.427,130.251 105.5,129.5 Z"/></g>
<g><path style="opacity:0.943" fill="#1e2e8c" d="M 124.5,130.5 C 124.5,131.5 124.5,132.5 124.5,133.5C 119.332,141.164 114.665,149.164 110.5,157.5C 109.833,157.5 109.5,157.833 109.5,158.5C 109.167,158.5 108.833,158.5 108.5,158.5C 113.331,148.833 118.664,139.5 124.5,130.5 Z"/></g>
<g><path style="opacity:0.997" fill="#1a4194" d="M 122.5,123.5 C 123.338,123.842 123.672,124.508 123.5,125.5C 116.263,136.965 109.263,148.632 102.5,160.5C 102.5,160.833 102.5,161.167 102.5,161.5C 101.833,161.5 101.167,161.5 100.5,161.5C 107.332,148.498 114.665,135.832 122.5,123.5 Z"/></g>
<g><path style="opacity:0.944" fill="#3d6eb6" d="M 83.5,130.5 C 83.5,133.167 83.5,135.833 83.5,138.5C 80.5,143.167 77.5,147.833 74.5,152.5C 73.0937,152.027 72.427,151.027 72.5,149.5C 75.7753,142.903 79.442,136.57 83.5,130.5 Z"/></g>
<g><path style="opacity:0.008" fill="#7876d2" d="M 64.5,127.5 C 65.6433,130.976 65.8099,134.642 65,138.5C 64.5014,134.848 64.3347,131.182 64.5,127.5 Z"/></g>
<g><path style="opacity:0.004" fill="#272e90" d="M 125.5,128.5 C 126.641,131.64 126.808,134.973 126,138.5C 125.502,135.183 125.335,131.85 125.5,128.5 Z"/></g>
<g><path style="opacity:0.012" fill="#5d69be" d="M 65.5,139.5 C 66.525,139.897 66.6917,140.563 66,141.5C 65.5357,140.906 65.369,140.239 65.5,139.5 Z"/></g>
<g><path style="opacity:0.012" fill="#212387" d="M 124.5,139.5 C 125.525,139.897 125.692,140.563 125,141.5C 124.536,140.906 124.369,140.239 124.5,139.5 Z"/></g>
<g><path style="opacity:0.012" fill="#16539c" d="M 105.5,142.5 C 102.999,142.489 102.832,141.822 105,140.5C 105.464,141.094 105.631,141.761 105.5,142.5 Z"/></g>
<g><path style="opacity:0.949" fill="#3070b3" d="M 83.5,138.5 C 83.6596,140.153 84.3263,141.486 85.5,142.5C 85.5,142.833 85.5,143.167 85.5,143.5C 82.6654,147.164 80.332,151.164 78.5,155.5C 77.8333,155.5 77.1667,155.5 76.5,155.5C 75.8333,154.5 75.1667,153.5 74.5,152.5C 77.5,147.833 80.5,143.167 83.5,138.5 Z"/></g>
<g><path style="opacity:0.016" fill="#2c71b2" d="M 85.5,142.5 C 85.5109,139.999 86.1776,139.832 87.5,142C 86.9056,142.464 86.2389,142.631 85.5,142.5 Z"/></g>
<g><path style="opacity:0.992" fill="#212688" d="M 124.5,133.5 C 124.296,136.518 123.963,139.518 123.5,142.5C 122.662,142.842 122.328,143.508 122.5,144.5C 121.662,144.842 121.328,145.508 121.5,146.5C 120.662,146.842 120.328,147.508 120.5,148.5C 119.833,148.5 119.5,148.833 119.5,149.5C 118.662,149.842 118.328,150.508 118.5,151.5C 117.833,151.5 117.5,151.833 117.5,152.5C 116.833,152.5 116.5,152.833 116.5,153.5C 115.833,153.5 115.5,153.833 115.5,154.5C 114.833,154.5 114.5,154.833 114.5,155.5C 112.973,155.427 111.973,156.094 111.5,157.5C 111.167,157.5 110.833,157.5 110.5,157.5C 114.665,149.164 119.332,141.164 124.5,133.5 Z"/></g>
<g><path style="opacity:0.008" fill="#6075c7" d="M 67.5,142.5 C 67.631,143.239 67.4643,143.906 67,144.5C 66.3083,143.563 66.475,142.897 67.5,142.5 Z"/></g>
<g><path style="opacity:0.921" fill="#2472b0" d="M 85.5,143.5 C 86.609,143.557 87.609,143.89 88.5,144.5C 85.9123,148.674 83.579,153.007 81.5,157.5C 80.8333,157.5 80.1667,157.5 79.5,157.5C 79.1667,156.833 78.8333,156.167 78.5,155.5C 80.332,151.164 82.6654,147.164 85.5,143.5 Z"/></g>
<g><path style="opacity:0.888" fill="#16559d" d="M 105.5,142.5 C 105.833,142.5 106.167,142.5 106.5,142.5C 103.195,148.816 99.8621,155.15 96.5,161.5C 95.8333,161.5 95.1667,161.5 94.5,161.5C 95.8466,158.807 97.1799,156.14 98.5,153.5C 98.3284,152.508 98.6618,151.842 99.5,151.5C 101.588,149.664 102.921,147.331 103.5,144.5C 104.167,143.833 104.833,143.167 105.5,142.5 Z"/></g>
<g><path style="opacity:0.008" fill="#262289" d="M 123.5,142.5 C 124.833,143.167 124.833,143.833 123.5,144.5C 123.5,143.833 123.5,143.167 123.5,142.5 Z"/></g>
<g><path style="opacity:0.766" fill="#145da0" d="M 98.5,144.5 C 100.167,144.5 101.833,144.5 103.5,144.5C 102.921,147.331 101.588,149.664 99.5,151.5C 99.33,150.178 99.6634,149.011 100.5,148C 99.2068,147.51 97.8734,147.343 96.5,147.5C 97.1667,146.5 97.8333,145.5 98.5,144.5 Z"/></g>
<g><path style="opacity:0.008" fill="#1c1979" d="M 122.5,144.5 C 122.833,144.5 123.167,144.5 123.5,144.5C 123.672,145.492 123.338,146.158 122.5,146.5C 122.5,145.833 122.5,145.167 122.5,144.5 Z"/></g>
<g><path style="opacity:0.008" fill="#496cb9" d="M 69.5,146.5 C 69.631,147.239 69.4643,147.906 69,148.5C 68.3083,147.563 68.475,146.897 69.5,146.5 Z"/></g>
<g><path style="opacity:0.004" fill="#291373" d="M 121.5,146.5 C 121.833,146.5 122.167,146.5 122.5,146.5C 122.672,147.492 122.338,148.158 121.5,148.5C 121.5,147.833 121.5,147.167 121.5,146.5 Z"/></g>
<g><path style="opacity:0.016" fill="#231f85" d="M 120.5,148.5 C 120.833,148.5 121.167,148.5 121.5,148.5C 121.315,149.17 120.981,149.17 120.5,148.5 Z"/></g>
<g><path style="opacity:0.88" fill="#1473ab" d="M 88.5,144.5 C 91.8333,144.5 95.1667,144.5 98.5,144.5C 97.8333,145.5 97.1667,146.5 96.5,147.5C 94.4727,147.338 92.4727,147.505 90.5,148C 91.464,149.725 92.1307,151.559 92.5,153.5C 91.9213,156.331 90.588,158.664 88.5,160.5C 85.7594,160.293 83.4261,159.293 81.5,157.5C 83.579,153.007 85.9123,148.674 88.5,144.5 Z"/></g>
<g><path style="opacity:0.004" fill="#232085" d="M 119.5,149.5 C 119.833,149.5 120.167,149.5 120.5,149.5C 120.672,150.492 120.338,151.158 119.5,151.5C 119.5,150.833 119.5,150.167 119.5,149.5 Z"/></g>
<g><path style="opacity:0.012" fill="#211f86" d="M 118.5,151.5 C 118.833,151.5 119.167,151.5 119.5,151.5C 119.315,152.17 118.981,152.17 118.5,151.5 Z"/></g>
<g><path style="opacity:0.995" fill="#1d358f" d="M 123.5,127.5 C 123.833,127.5 124.167,127.5 124.5,127.5C 124.5,128.5 124.5,129.5 124.5,130.5C 118.664,139.5 113.331,148.833 108.5,158.5C 107.609,159.11 106.609,159.443 105.5,159.5C 111.072,148.594 117.072,137.928 123.5,127.5 Z"/></g>
<g><path style="opacity:0.012" fill="#212087" d="M 117.5,152.5 C 117.833,152.5 118.167,152.5 118.5,152.5C 118.315,153.17 117.981,153.17 117.5,152.5 Z"/></g>
<g><path style="opacity:0.866" fill="#145fa1" d="M 92.5,153.5 C 94.5,153.5 96.5,153.5 98.5,153.5C 97.1799,156.14 95.8466,158.807 94.5,161.5C 92.2646,161.795 90.2646,161.461 88.5,160.5C 90.588,158.664 91.9213,156.331 92.5,153.5 Z"/></g>
<g><path style="opacity:0.016" fill="#202187" d="M 116.5,153.5 C 116.833,153.5 117.167,153.5 117.5,153.5C 117.315,154.17 116.981,154.17 116.5,153.5 Z"/></g>
<g><path style="opacity:0.016" fill="#202288" d="M 115.5,154.5 C 115.833,154.5 116.167,154.5 116.5,154.5C 116.315,155.17 115.981,155.17 115.5,154.5 Z"/></g>
<g><path style="opacity:0.012" fill="#3071b3" d="M 76.5,155.5 C 76.5,155.833 76.5,156.167 76.5,156.5C 75.8299,156.019 75.8299,155.685 76.5,155.5 Z"/></g>
<g><path style="opacity:0.012" fill="#202388" d="M 114.5,155.5 C 114.833,155.5 115.167,155.5 115.5,155.5C 115.315,156.17 114.981,156.17 114.5,155.5 Z"/></g>
<g><path style="opacity:0.008" fill="#2d71b3" d="M 76.5,156.5 C 77.8333,157.167 77.8333,157.167 76.5,156.5 Z"/></g>
<g><path style="opacity:0.008" fill="#1f2488" d="M 114.5,156.5 C 113.833,157.167 113.833,157.167 114.5,156.5 Z"/></g>
<g><path style="opacity:0.016" fill="#2673b1" d="M 79.5,157.5 C 79.5,157.833 79.5,158.167 79.5,158.5C 78.8299,158.019 78.8299,157.685 79.5,157.5 Z"/></g>
<g><path style="opacity:0.016" fill="#1f298a" d="M 111.5,157.5 C 112.833,158.167 112.833,158.167 111.5,157.5 Z"/></g>
<g><path style="opacity:0.008" fill="#2373b0" d="M 79.5,158.5 C 80.8333,159.167 80.8333,159.167 79.5,158.5 Z"/></g>
<g><path style="opacity:0.008" fill="#1f2d8c" d="M 109.5,159.5 C 109.5,159.167 109.5,158.833 109.5,158.5C 110.167,158.5 110.833,158.5 111.5,158.5C 111.158,159.338 110.492,159.672 109.5,159.5 Z"/></g>
<g><path style="opacity:0.012" fill="#1d74af" d="M 81.5,159.5 C 82.8333,160.167 82.8333,160.167 81.5,159.5 Z"/></g>
<g><path style="opacity:0.012" fill="#21308f" d="M 109.5,159.5 C 108.833,160.167 108.833,160.167 109.5,159.5 Z"/></g>
<g><path style="opacity:0.012" fill="#1d348f" d="M 105.5,161.5 C 105.5,161.167 105.5,160.833 105.5,160.5C 108.167,160.833 108.167,161.167 105.5,161.5 Z"/></g>
<g><path style="opacity:0.012" fill="#1f3d93" d="M 102.5,162.5 C 102.5,162.167 102.5,161.833 102.5,161.5C 103.5,161.5 104.5,161.5 105.5,161.5C 104.791,162.404 103.791,162.737 102.5,162.5 Z"/></g>
<g><path style="opacity:0.01" fill="#1f56a0" d="M 102.5,162.5 C 98.0189,163.648 93.3522,163.815 88.5,163C 93.1548,162.501 97.8215,162.334 102.5,162.5 Z"/></g>
</svg>
